HIERARCHY
ROOT Hip
{
	OFFSET 0 1.131 0.0052
	CHANNELS 6 Xposition Yposition Zposition Xrotation Yrotation Zrotation
	JOINT Abdomen
	{
		OFFSET 0 -0.047353 -0.05
		CHANNELS 3 Xrotation Zrotation Yrotation
		JOINT Chest
		{
			OFFSET 0 0.132153 0.007439
			CHANNELS 3 Xrotation Zrotation Yrotation
			JOINT Neck
			{
				OFFSET 0 0.3078 0.006161
				CHANNELS 3 Xrotation Zrotation Yrotation
				JOINT Head_comp
				{
					OFFSET 0 0.0884 0.013
					CHANNELS 3 Xrotation Yrotation Zrotation
					End Site
					{
						OFFSET -0 0.156 0.0624
					}
				}
			}
			JOINT Left_Collar
			{
				OFFSET 0.02282 0.250342 0.017193
				CHANNELS 2 Yrotation Zrotation
				JOINT Left_Shoulder
				{
					OFFSET 0.15421 0 0
					CHANNELS 3 Xrotation Yrotation Zrotation
					JOINT Left_Forearm
					{
						OFFSET 0.265212 0 0
						CHANNELS 2 Yrotation Xrotation
						JOINT Left_Hand
						{
							OFFSET 0.27571 0 0
							CHANNELS 2 Zrotation Yrotation
							JOINT L1ProxPhalanx
							{
								OFFSET 0.014142 0.001733 0.014142
								CHANNELS 3 Yrotation Zrotation Xrotation
								JOINT L1MidPhalanx
								{
									OFFSET 0.04 0 0
									CHANNELS 1 Zrotation
									JOINT L1DistPhalanx
									{
										OFFSET 0.035 0 0
										CHANNELS 1 Zrotation
										End Site
										{
											OFFSET 0.029 -0 -0
										}
									}
								}
							}
							JOINT L2ProxPhalanx
							{
								OFFSET 0.0821037 0.001578 0.0219996
								CHANNELS 2 Yrotation Zrotation
								JOINT L2MidPhalanx
								{
									OFFSET 0.04 0 0
									CHANNELS 1 Zrotation
									JOINT L2DistPhalanx
									{
										OFFSET 0.028 0 0
										CHANNELS 1 Zrotation
										End Site
										{
											OFFSET 0.02 -0 -0
										}
									}
								}
							}
							JOINT L3ProxPhalanx
							{
								OFFSET 0.083 0 0
								CHANNELS 2 Yrotation Zrotation
								JOINT L3MidPhalanx
								{
									OFFSET 0.053 0 0
									CHANNELS 1 Zrotation
									JOINT L3DistPhalanx
									{
										OFFSET 0.03 0 0
										CHANNELS 1 Zrotation
										End Site
										{
											OFFSET 0.023 -0 -0
										}
									}
								}
							}
							JOINT L4ProxPhalanx
							{
								OFFSET 0.077274 -0.000761 -0.0207055
								CHANNELS 2 Yrotation Zrotation
								JOINT L4MidPhalanx
								{
									OFFSET 0.05 0 0
									CHANNELS 1 Zrotation
									JOINT L4DistPhalanx
									{
										OFFSET 0.03 0 0
										CHANNELS 1 Zrotation
										End Site
										{
											OFFSET 0.023 -0 -0
										}
									}
								}
							}
							JOINT L5ProxPhalanx
							{
								OFFSET 0.0675499 -0.001644 -0.039
								CHANNELS 2 Yrotation Zrotation
								JOINT L5MidPhalanx
								{
									OFFSET 0.04 0 0
									CHANNELS 1 Zrotation
									JOINT L5DistPhalanx
									{
										OFFSET 0.021 0 0
										CHANNELS 1 Zrotation
										End Site
										{
											OFFSET 0.022 -0 -0
										}
									}
								}
							}
						}
					}
				}
			}
			JOINT Right_Collar
			{
				OFFSET -0.02282 0.250342 0.017193
				CHANNELS 2 Yrotation Zrotation
				JOINT Right_Shoulder
				{
					OFFSET -0.15421 0 0
					CHANNELS 3 Xrotation Yrotation Zrotation
					JOINT Right_Forearm
					{
						OFFSET -0.265212 0 0
						CHANNELS 2 Yrotation Xrotation
						JOINT Right_Hand
						{
							OFFSET -0.27571 3e-006 0
							CHANNELS 2 Zrotation Yrotation
							JOINT R1ProxPhalanx
							{
								OFFSET -0.014142 0.001733 0.014142
								CHANNELS 3 Yrotation Zrotation Xrotation
								JOINT R1MidPhalanx
								{
									OFFSET -0.04 0 0
									CHANNELS 1 Zrotation
									JOINT R1DistPhalanx
									{
										OFFSET -0.035 0 0
										CHANNELS 1 Zrotation
										End Site
										{
											OFFSET -0.029 -0 -0
										}
									}
								}
							}
							JOINT R2ProxPhalanx
							{
								OFFSET -0.0821037 0.001578 0.0219996
								CHANNELS 2 Yrotation Zrotation
								JOINT R2MidPhalanx
								{
									OFFSET -0.04 0 0
									CHANNELS 1 Zrotation
									JOINT R2DistPhalanx
									{
										OFFSET -0.028 0 0
										CHANNELS 1 Zrotation
										End Site
										{
											OFFSET -0.02 -0 -0
										}
									}
								}
							}
							JOINT R3ProxPhalanx
							{
								OFFSET -0.083 0 0
								CHANNELS 2 Yrotation Zrotation
								JOINT R3MidPhalanx
								{
									OFFSET -0.053 0 0
									CHANNELS 1 Zrotation
									JOINT R3DistPhalanx
									{
										OFFSET -0.03 0 0
										CHANNELS 1 Zrotation
										End Site
										{
											OFFSET -0.023 -0 -0
										}
									}
								}
							}
							JOINT R4ProxPhalanx
							{
								OFFSET -0.077274 -0.000761 -0.0207055
								CHANNELS 2 Yrotation Zrotation
								JOINT R4MidPhalanx
								{
									OFFSET -0.05 0 0
									CHANNELS 1 Zrotation
									JOINT R4DistPhalanx
									{
										OFFSET -0.03 0 0
										CHANNELS 1 Zrotation
										End Site
										{
											OFFSET -0.023 -0 -0
										}
									}
								}
							}
							JOINT R5ProxPhalanx
							{
								OFFSET -0.0675499 -0.001644 -0.039
								CHANNELS 2 Yrotation Zrotation
								JOINT R5MidPhalanx
								{
									OFFSET -0.04 0 0
									CHANNELS 1 Zrotation
									JOINT R5DistPhalanx
									{
										OFFSET -0.021 0 0
										CHANNELS 1 Zrotation
										End Site
										{
											OFFSET -0.022 -0 -0
										}
									}
								}
							}
						}
					}
				}
			}
		}
	}
	JOINT Left_Thigh
	{
		OFFSET 0.1118 -0.1612 -0.0442
		CHANNELS 3 Xrotation Zrotation Yrotation
		JOINT Left_Shin
		{
			OFFSET 0 -0.477856 0
			CHANNELS 1 Xrotation
			JOINT Left_Foot
			{
				OFFSET 0 -0.431952 0
				CHANNELS 2 Xrotation Zrotation
				JOINT Left_Toe
				{
					OFFSET 0 -0.0442 0.119
					CHANNELS 1 Xrotation
					End Site
					{
						OFFSET -0 -0 0.07
					}
				}
			}
		}
	}
	JOINT Right_Thigh
	{
		OFFSET -0.1118 -0.1612 -0.0442
		CHANNELS 3 Xrotation Zrotation Yrotation
		JOINT Right_Shin
		{
			OFFSET 0 -0.477856 0
			CHANNELS 1 Xrotation
			JOINT Right_Foot
			{
				OFFSET 0 -0.431952 0
				CHANNELS 2 Xrotation Zrotation
				JOINT Right_Toe
				{
					OFFSET 0 -0.0442 0.119
					CHANNELS 1 Xrotation
					End Site
					{
						OFFSET -0 -0 0.07
					}
				}
			}
		}
	}
}
MOTION
Frames: 10
Frame Time: 0.00998571
-0.100441 -0.0617201 0.0364471 5.52271e-007 -1.55776 -0.021883 0.546739 -0.827944 -0.528729 0.546744 0.551962 -0.528587 0.546744 0.662354 -0.528587 -1.30738 1.54934 0.551961 1.13754 -5.34051 0.860928 -24.9085 -61.2324 -87.1227 34.7239 0.451961 -0.114688 -26.0474 -64.2238 113.276 -47.5743 -45.0586 -9.06625 -24.4445 -14.2991 -0.0413103 0 -71.3113 -83.0283 -74.3154 8.40621 -31.4516 -63.8515 -54.9494 12.1686 -9.47368 -71.8418 -56.2318 -0.744869 3.00455 -34.3409 23.002 48.7944 102.357 39.7478 3.28754 -0.855575 49.1349 38.2357 76.4561 36.295 25.8002 6.12572 28.2053 4.36897 -0.487816 0 81.6903 55.7851 30.9091 -9.62649 79.7749 75.6302 50.0111 -13.5855 63.1577 74.2336 60.5834 -3.3046 -0.673338 1.59909 6.98449 -3.70028 0.786005 0 -3.58464 -0.670647 1.60268 6.7665 -3.20229 0.791148 0 
-0.100417 -0.0617212 0.0363887 -1.60324e-013 -1.59728 -0.0234301 0.556579 -0.848826 -0.542318 0.556579 0.565884 -0.542161 0.556579 0.679061 -0.542161 -1.31765 1.58155 0.565884 1.14284 -5.31919 0.797359 -24.9344 -61.338 -86.8476 34.9184 -0.23758 0.0681028 -26.0474 -64.2238 113.276 -47.5743 -45.0586 -9.06625 -24.4445 -14.2991 -0.0413103 0 -71.3113 -83.0283 -74.3154 8.40621 -31.4516 -63.8515 -54.9494 12.1686 -9.47368 -71.8418 -56.2318 -0.712809 2.86097 -34.7497 22.9298 48.5163 102.48 39.8689 3.56563 -0.95739 49.1349 38.2357 76.4561 36.295 25.8002 6.12572 28.2053 4.36897 -0.487816 0 81.6903 55.7851 30.9091 -9.62649 79.7749 75.6302 50.0111 -13.5855 63.1577 74.2336 60.5834 -3.3074 -0.672477 1.63865 6.99178 -3.70533 0.789036 0 -3.59025 -0.669771 1.64229 6.75921 -3.18996 0.794438 0 
-0.100366 -0.0617222 0.0363165 -2.03909e-013 -1.59728 -0.0233019 0.569713 -0.848826 -0.542319 0.569713 0.565884 -0.542161 0.569713 0.679061 -0.542161 -1.33219 1.58163 0.565884 1.13762 -5.31133 0.73211 -24.9321 -61.4065 -86.6333 35.0138 -0.974246 0.284383 -26.0474 -64.2238 113.276 -47.5743 -45.0586 -9.06625 -24.4445 -14.2991 -0.0413103 0 -71.3113 -83.0283 -74.3154 8.40621 -31.4516 -63.8515 -54.9494 12.1686 -9.47368 -71.8418 -56.2318 -0.696694 2.73302 -35.1318 22.8831 48.2615 102.596 39.984 3.81268 -1.05442 49.1349 38.2357 76.4561 36.295 25.8002 6.12572 28.2053 4.36897 -0.487816 0 81.6903 55.7851 30.9091 -9.62649 79.7749 75.6302 50.0111 -13.5855 63.1577 74.2336 60.5834 -3.31205 -0.67572 1.6389 6.99178 -3.70077 0.792288 0 -3.5949 -0.673013 1.64255 6.75921 -3.1854 0.79769 0 
-0.100325 -0.0617229 0.0362751 -1.22368e-014 -1.59728 -0.0232281 0.576346 -0.848826 -0.542319 0.576346 0.565884 -0.542161 0.576346 0.679061 -0.542161 -1.33953 1.58165 0.565884 1.13113 -5.27753 0.667057 -24.9155 -61.4848 -86.4597 35.0507 -1.7161 0.52253 -25.9179 -64.2468 113.397 -47.6252 -45.1218 -9.06625 -24.4445 -14.2991 -0.0413103 0 -71.3113 -83.0283 -74.3154 8.40621 -31.4516 -63.8515 -54.9494 12.1686 -9.47368 -71.8418 -56.2318 -0.683915 2.62485 -35.4656 22.8397 48.0147 102.706 40.1021 4.03916 -1.14647 49.1349 38.2357 76.4561 36.295 25.8002 6.12572 28.2053 4.36897 -0.487816 0 81.6903 55.7851 30.9091 -9.62649 79.7749 75.6302 50.0111 -13.5855 63.1577 74.2336 60.5834 -3.31473 -0.678308 1.63909 6.99178 -3.69816 0.794883 0 -3.59758 -0.6756 1.64275 6.75921 -3.18279 0.800285 0 
-0.100323 -0.0617236 0.0362468 5.47562e-007 -1.63612 -0.024789 0.579586 -0.856338 -0.555676 0.579589 0.579567 -0.555505 0.579589 0.69548 -0.555505 -1.34222 1.6139 0.579566 1.13662 -5.22912 0.553963 -24.9086 -61.569 -86.3106 35.0774 -2.37584 0.752623 -25.4992 -64.3207 113.788 -47.7898 -45.3259 -9.06625 -24.4445 -14.2991 -0.0413103 0 -71.3113 -83.0283 -74.3154 8.40621 -31.4516 -63.8515 -54.9494 12.1686 -9.47368 -71.8418 -56.2318 -0.662442 2.54566 -35.7443 22.7827 47.772 102.826 40.2088 4.30589 -1.25558 49.1349 38.2357 76.4561 36.295 25.8002 6.12572 28.2053 4.36897 -0.487816 0 81.6903 55.7851 30.9091 -9.62649 79.7749 75.6302 50.0111 -13.5855 63.1577 74.2336 60.5834 -3.31561 -0.676071 1.67787 6.99895 -3.70496 0.796464 0 -3.60123 -0.673357 1.68158 6.75204 -3.17251 0.802134 0 
-0.100292 -0.0617243 0.0361908 5.81785e-007 -1.63736 -0.0247411 0.589385 -0.856576 -0.556103 0.589388 0.580004 -0.555929 0.589388 0.696005 -0.555929 -1.35304 1.61501 0.580006 1.12841 -5.17633 0.406194 -24.8808 -61.6489 -86.2037 35.159 -2.92519 0.956477 -24.9176 -64.4227 114.332 -48.0179 -45.6089 -9.06625 -24.4445 -14.2991 -0.0413103 0 -71.3113 -83.0283 -74.3154 8.40621 -31.4516 -63.8515 -54.9494 12.1686 -9.47368 -71.8418 -56.2318 -0.661622 2.50116 -35.9734 22.7473 47.5444 102.95 40.2986 4.60213 -1.38215 49.1349 38.2357 76.4561 36.295 25.8002 6.12572 28.2053 4.36897 -0.487816 0 81.6903 55.7851 30.9091 -9.62649 79.7749 75.6302 50.0111 -13.5855 63.1577 74.2336 60.5834 -3.31917 -0.677969 1.67927 6.99917 -3.7017 0.798492 0 -3.60488 -0.675255 1.68299 6.75181 -3.1687 0.80417 0 
-0.10023 -0.0617246 0.0361276 -2.38196e-013 -1.59728 -0.0229664 0.599298 -0.848826 -0.542321 0.599298 0.565884 -0.542161 0.599298 0.679061 -0.542161 -1.36493 1.58181 0.565884 1.10582 -5.11883 0.22414 -24.836 -61.7215 -86.1436 35.3162 -3.37185 1.1308 -24.4319 -64.5077 114.786 -48.2083 -45.8451 -9.06625 -24.4445 -14.2991 -0.0413103 0 -71.3113 -83.0283 -74.3154 8.40621 -31.4516 -63.8515 -54.9494 12.1686 -9.47368 -71.8418 -56.2318 -0.675788 2.4666 -36.1653 22.7238 47.337 103.066 40.3842 4.91464 -1.51815 49.1349 38.2357 76.4561 36.295 25.8002 6.12572 28.2053 4.36897 -0.487816 0 81.6903 55.7851 30.9091 -9.62649 79.7749 75.6302 50.0111 -13.5855 63.1577 74.2336 60.5834 -3.3242 -0.684314 1.63956 6.99178 -3.68885 0.800906 0 -3.60706 -0.681604 1.64326 6.75921 -3.17348 0.806309 0 
-0.100208 -0.0617252 0.0360539 -2.9125e-013 -1.59728 -0.0228362 0.609078 -0.848826 -0.542322 0.609078 0.565884 -0.542161 0.609078 0.679061 -0.542161 -1.37575 1.58198 0.565884 1.10019 -5.06772 -0.000325302 -24.8106 -61.7784 -86.1228 35.4867 -3.75658 1.29014 -24.2356 -64.5419 114.97 -48.2853 -45.9406 -9.06625 -24.4445 -14.2991 -0.0413103 0 -71.3113 -83.0283 -74.3154 8.40621 -31.4516 -63.8515 -54.9494 12.1686 -9.47368 -71.8418 -56.2318 -0.675279 2.44578 -36.2964 22.6841 47.1428 103.194 40.4714 5.26343 -1.67759 49.1349 38.2357 76.4561 36.295 25.8002 6.12572 28.2053 4.36897 -0.487816 0 81.6903 55.7851 30.9091 -9.62649 79.7749 75.6302 50.0111 -13.5855 63.1577 74.2336 60.5834 -3.32889 -0.685745 1.63971 6.99178 -3.6842 0.802343 0 -3.61175 -0.683034 1.64341 6.75921 -3.16883 0.807746 0 
-0.100193 -0.0617256 0.0359807 -2.76593e-013 -1.59728 -0.0227072 0.619009 -0.848826 -0.542323 0.619009 0.565884 -0.542161 0.619009 0.679061 -0.542161 -1.38673 1.58213 0.565884 1.09405 -5.00417 -0.263298 -24.7739 -61.8294 -86.1588 35.62 -4.11533 1.44627 -24.2356 -64.5419 114.97 -48.2853 -45.9406 -9.06625 -24.4445 -14.2991 -0.0413103 0 -71.3113 -83.0283 -74.3154 8.40621 -31.4516 -63.8515 -54.9494 12.1686 -9.47368 -71.8418 -56.2318 -0.681807 2.45914 -36.3395 22.647 46.98 103.326 40.5579 5.61799 -1.84635 49.1349 38.2357 76.4561 36.295 25.8002 6.12572 28.2053 4.36897 -0.487816 0 81.6903 55.7851 30.9091 -9.62649 79.7749 75.6302 50.0111 -13.5855 63.1577 74.2336 60.5834 -3.33354 -0.686699 1.63983 6.99178 -3.67959 0.803303 0 -3.61639 -0.683989 1.64354 6.75921 -3.16422 0.808707 0 
-0.100189 -0.0617259 0.0359177 -3.22618e-013 -1.59728 -0.0225962 0.625576 -0.848826 -0.542324 0.625576 0.565884 -0.542161 0.625576 0.679061 -0.542161 -1.39399 1.58223 0.565884 1.08719 -4.92926 -0.582602 -24.7176 -61.8732 -86.2451 35.7077 -4.44798 1.59636 -24.2356 -64.5419 114.97 -48.2853 -45.9406 -9.06625 -24.4445 -14.2991 -0.0413103 0 -71.3113 -83.0283 -74.3154 8.40621 -31.4516 -63.8515 -54.9494 12.1686 -9.47368 -71.8418 -56.2318 -0.694989 2.50414 -36.3081 22.6207 46.8574 103.444 40.6297 5.94734 -2.00689 49.1349 38.2357 76.4561 36.295 25.8002 6.12572 28.2053 4.36897 -0.487816 0 81.6903 55.7851 30.9091 -9.62649 79.7749 75.6302 50.0111 -13.5855 63.1577 74.2336 60.5834 -3.33752 -0.686962 1.6399 6.99178 -3.67561 0.803569 0 -3.62037 -0.684251 1.64361 6.75921 -3.16024 0.808973 0 
